<?xml version="1.0" encoding="UTF-8"?>
<svg version="1.1" viewBox="0 0 2048 1990" width="1280" height="1280" xmlns="http://www.w3.org/2000/svg">
<path transform="translate(1293,381)" d="m0 0 5 2 23 16 43 30 20 14 17 12 23 16 40 28 17 12 20 14 16 11 7 5 1 2v186l-2 31-4 23-7 25-11 26-10 18-11 16-11 14-15 16-10 9-17 13-19 12-27 13-24 8-23 5-23 3h-36l-27-4-20-5-22-8-18-8-17-10-17-12-13-11-13-12-7-8-10-12-11-16-10-17-8-17-8-22-6-25-3-21-1-12v-197l9-7 18-13 19-13 15-11 19-13 15-11 40-28 18-13 20-14 51-36z" fill="#C81208"/>
<path transform="translate(750,381)" d="m0 0 4 2 16 11 17 12 14 10 136 96 18 13 19 13 7 6v189l-2 28-4 23-6 21-10 25-10 19-12 18-11 14-12 13-9 9-14 11-15 11-23 13-24 10-20 6-25 5-17 2h-35l-23-3-25-6-22-8-25-12-19-12-16-13-10-9-16-16-13-17-10-15-12-23-8-20-7-24-4-22-2-25v-192l9-7 51-36 20-14 18-13 23-16 18-13 19-13 15-11 20-14 34-24z" fill="#C81208"/>
<path transform="translate(1274)" d="m0 0h39l30 5 23 6 25 10 20 10 15 10 12 9 14 12 14 14 9 11 11 15 12 20 9 19 7 19 6 23 3 19 1 10 1 29v249l-4-1-18-13-19-13-20-14-17-12-83-58-40-28-9-7-1-203-4-8-9-6h-13l-7 4-4 5-2 4-1 204-10 8-19 13-14 10-63 44-23 16-17 12-43 30-19 13h-2v-270l3-27 6-27 8-23 12-25 12-19 10-13 11-13 16-16 14-11 16-11 16-9 21-10 21-7 26-6z" fill="#C81208"/>
<path transform="translate(731)" d="m0 0h38l30 5 23 6 21 8 16 8 16 9 14 10 10 8 12 11 13 13 11 14 11 16 9 16 9 19 7 20 5 19 3 19 1 9 1 22v258l-5-2-143-100-50-35-11-8-2-205-6-9-7-4h-13l-8 5-4 6-1 3-1 203-11 9-19 13-20 14-63 44-43 30-17 12-20 14-15 10h-2v-264l2-26 5-25 6-21 10-24 11-20 8-12 10-13 11-13 12-12h2v-2l10-8 15-11 18-11 23-11 20-7 24-6z" fill="#C81208"/>
<path transform="translate(1468,1508)" d="m0 0h45l23 3 20 5 20 7 16 8 11 6 14 10 13 11 13 13 10 13 10 16 8 16 5 12 6 20 4 22 2 27-1 25-3 21-5 21-7 19-10 20-8 12-10 13-12 13-11 10-17 12-16 9-15 7-21 7-24 5-17 2h-43l-22-3-21-5-17-6-23-11-18-12-13-11-10-9-7-8-10-13-7-11-11-21-7-19-5-21-3-20-1-15v-15l2-23 5-25 5-16 6-15 9-17 10-15 9-11 12-13 11-9 15-11 16-9 17-8 26-8 22-4zm13 94-16 4-12 6-9 7-8 8-7 10-8 16-4 12-3 17-1 23 2 20 5 19 8 16 6 9 9 10 10 7 12 6 11 3 7 1h15l15-3 16-8 8-6 10-10 9-14 6-14 4-16 2-21-1-21-3-17-6-17-9-16-11-13-12-9-13-6-13-3z" fill="#C81208"/>
<path transform="translate(1033,1613)" d="m0 0 20 1 20 4 15 5 19 10 12 9 10 9 10 11 10 15 8 16 5 15 4 19 1 8v31l-3 20-6 20-8 18-12 18-11 12-8 8-16 11-15 8-18 6-16 3-10 1h-19l-19-3-16-6-12-7-12-11-10-12-7-12-1 131-16 3-46 7-41 6-9 1-1-1v-369l1-1h110l1 1v19l-1 36h2l2-6 9-15 9-11 10-9 13-8 14-6 17-4zm-38 85-16 4-12 7-9 9-7 12-3 11v20l3 11 5 10 7 9 12 9 9 4 11 2h14l14-4 12-7 8-8 7-11 4-12 1-6v-12l-3-13-5-10-8-10-9-7-10-5-13-3z" fill="#C81208"/>
<path transform="translate(149,1508)" d="m0 0 28 1 21 3 21 5 23 8 15 8 8 6-2 10-15 66-1 3-6-2-25-9-28-7-14-2h-34l-12 3-8 4-5 4-3 6v10l6 8 16 8 22 8 26 8 25 9 23 11 13 9 13 11 9 11 7 11 6 16 3 17v26l-3 19-5 18-8 17-10 14-8 9-14 11-13 8-15 7-15 5-17 4-23 3h-44l-24-3-29-6-19-6-20-8-13-7 5-25 12-54 2-8 6 2 15 7 19 7 15 4 26 4 9 1h31l13-3 9-5 5-5 3-8-1-10-7-8-18-8-46-14-24-8-18-8-15-9-9-7-8-7-11-14-8-16-5-19-1-6v-25l5-24 6-16 7-13 10-13 12-12 14-10 14-8 21-8 25-6 15-2z" fill="#C81208"/>
<path transform="translate(1921,1613)" d="m0 0h29l20 4 13 5 13 7 10 8 10 10 10 15 8 16 5 15 4 19 2 16 1 17v140l-111 1-2-1-1-146-2-14-5-12-7-8-10-5-4-1h-20l-12 4-9 6-5 5-6 8-5 10-3 13-1 8-1 132-111 1-2-1v-268h112v55l11-19 11-13 9-8 12-8 14-6 16-4z" fill="#C81208"/>
<path transform="translate(656,1615)" d="m0 0h34l19 3 16 5 16 8 11 8 10 9 8 9 11 18 8 19 5 20 3 23 1 22-9 2-147 19-3 1 7 10 7 8 12 8 13 5 10 2 10 1h16l17-2 19-4 19-7 4-1 3 13 9 49v8l-19 8-20 6-22 4-22 2h-26l-30-3-23-5-19-7-16-8-11-7-11-9-13-13-10-14-8-16-6-18-4-22v-33l3-18 7-21 9-17 10-13 9-10 8-8 17-12 19-10 21-7 19-4zm12 65-10 3-9 6-8 8-6 10-5 16-1 8 26-5 57-12 1-1-1-9-6-12-7-7-9-4-4-1z" fill="#C81208"/>
<path transform="translate(381,1531)" d="m0 0h54l1 1v84h62v66h-62l1 98 3 10 5 5 8 5 4 1h17l13-4 4-1 6 52 2 22-4 4-13 6-20 6-18 3h-34l-18-3-18-6-11-6-9-7-9-8-9-13-6-13-5-17-2-21v-113h-34v-66l41-1 3-3 17-29 16-27 10-17z" fill="#C81208"/>
</svg>
